<svg xmlns="http://www.w3.org/2000/svg" version="1.1" xmlns:xlink="http://www.w3.org/1999/xlink" xmlns:svgjs="http://svgjs.com/svgjs" width="1440" height="560" preserveAspectRatio="none" viewBox="0 0 1440 560"><g mask="url(&quot;#SvgjsMask1000&quot;)" fill="none"><path d="M971.9879240686403 419.69114986717466L929.5475028722545 365.36988789011093 869.2858205048519 456.1911506732214z" fill="rgba(244, 236, 224, 1)" class="triangle-float3"></path><path d="M363.4383778891086 482.3806512270553L534.3238002181843 531.5575538681907 499.3566786061424 380.0983102124717z" fill="rgba(244, 236, 224, 1)" class="triangle-float3"></path><path d="M1095.006781579883 177.44286819649923L1249.3091518487392 182.83122570068832 1254.6975093529284 28.528855431832 1100.395139084072 23.14049792764291z" fill="rgba(244, 236, 224, 1)" class="triangle-float3"></path><path d="M709.264,551.561C725.824,550.757,737.095,537.08,745.835,522.991C755.281,507.763,765.302,490.178,757.279,474.155C748.678,456.978,728.474,449.954,709.264,449.955C690.056,449.956,670.677,457.42,661.256,474.159C651.983,490.635,656.011,510.801,665.976,526.868C675.36,541.998,691.481,552.424,709.264,551.561" fill="rgba(244, 236, 224, 1)" class="triangle-float3"></path><path d="M1042.4811708274221 383.34332331107146L1073.438886636988 478.93124781454344 1133.3400628006743 414.6951008029296z" fill="rgba(244, 236, 224, 1)" class="triangle-float3"></path><path d="M620.8118442166223 54.342020053659795L538.6487866407559 185.55197962212213 673.7935443384864 192.63461625480488z" fill="rgba(244, 236, 224, 1)" class="triangle-float3"></path></g><defs><mask id="SvgjsMask1000"><rect width="1440" height="560" fill="#ffffff"></rect></mask><style>
            @keyframes float1 {
                0%{transform: translate(0, 0)}
                50%{transform: translate(-10px, 0)}
                100%{transform: translate(0, 0)}
            }

            .triangle-float1 {
                animation: float1 5s infinite;
            }

            @keyframes float2 {
                0%{transform: translate(0, 0)}
                50%{transform: translate(-5px, -5px)}
                100%{transform: translate(0, 0)}
            }

            .triangle-float2 {
                animation: float2 4s infinite;
            }

            @keyframes float3 {
                0%{transform: translate(0, 0)}
                50%{transform: translate(0, -10px)}
                100%{transform: translate(0, 0)}
            }

            .triangle-float3 {
                animation: float3 6s infinite;
            }
        </style></defs></svg>