<svg xmlns="http://www.w3.org/2000/svg" version="1.1" xmlns:xlink="http://www.w3.org/1999/xlink" xmlns:svgjs="http://svgjs.com/svgjs" width="1440" height="560" preserveAspectRatio="none" viewBox="0 0 1440 560"><g mask="url(&quot;#SvgjsMask1014&quot;)" fill="none"><path d="M995.6 330.09L1051.48 330.09L1051.48 366.51L995.6 366.51z" stroke="rgba(192, 122, 53, 1)"></path><path d="M900.22 118.63L903.41 118.63L903.41 149.8L900.22 149.8z" stroke="rgba(192, 122, 53, 1)"></path><path d="M1032.4 19.76 a38.12 38.12 0 1 0 76.24 0 a38.12 38.12 0 1 0 -76.24 0z" fill="rgba(192, 122, 53, 1)"></path><path d="M1112.29 122.68a17.37 17.37 0 1 0 6.1 34.21z" fill="rgba(192, 122, 53, 1)"></path><path d="M1085.41 456.31L1101.29 456.31L1101.29 472.19L1085.41 472.19z" fill="rgba(192, 122, 53, 1)"></path><path d="M332.27 400.28L364.22 400.28L364.22 451.4L332.27 451.4z" stroke="rgba(192, 122, 53, 1)"></path><path d="M168.93 251.26L199.52 251.26L199.52 281.85L168.93 281.85z" fill="rgba(192, 122, 53, 1)"></path><path d="M471.2 374.31 a42.71 42.71 0 1 0 85.42 0 a42.71 42.71 0 1 0 -85.42 0z" fill="rgba(192, 122, 53, 1)"></path><path d="M503.64 45.02L511 45.02L511 52.38L503.64 52.38z" fill="rgba(192, 122, 53, 1)"></path><path d="M160.56 311.22 a12.52 12.52 0 1 0 25.04 0 a12.52 12.52 0 1 0 -25.04 0z" fill="rgba(192, 122, 53, 1)"></path><path d="M1022.12 91.48 a4.26 4.26 0 1 0 8.52 0 a4.26 4.26 0 1 0 -8.52 0z" fill="rgba(192, 122, 53, 1)"></path><path d="M101.53 227.45L140.28 227.45L140.28 243.12L101.53 243.12z" stroke="rgba(192, 122, 53, 1)"></path><path d="M-1.58 399.46a13.11 13.11 0 1 0 6.89 25.3z" fill="rgba(192, 122, 53, 1)"></path><path d="M416.27 275.28L433.03 275.28L433.03 292.04L416.27 292.04z" fill="rgba(192, 122, 53, 1)"></path><path d="M309.38 127a44.87 44.87 0 1 0-2.73 89.7z" fill="rgba(192, 122, 53, 1)"></path><path d="M389.74 337.47L393.44 337.47L393.44 341.17L389.74 341.17z" fill="rgba(192, 122, 53, 1)"></path><path d="M115.68 435.85L146.96 435.85L146.96 481.3L115.68 481.3z" fill="rgba(192, 122, 53, 1)"></path><path d="M1378.19 95.02a31.79 31.79 0 1 0 62.24 13z" stroke="rgba(192, 122, 53, 1)"></path><path d="M1226.49 236.9 a13.16 13.16 0 1 0 26.32 0 a13.16 13.16 0 1 0 -26.32 0z" stroke="rgba(192, 122, 53, 1)"></path><path d="M90.9 504.36a26.24 26.24 0 1 0 31.01 42.34z" stroke="rgba(192, 122, 53, 1)"></path><path d="M983.7 392.98L1009.58 392.98L1009.58 396.06L983.7 396.06z" stroke="rgba(192, 122, 53, 1)"></path><path d="M667.08 194.68L698.28 194.68L698.28 237.67L667.08 237.67z" fill="rgba(192, 122, 53, 1)"></path><path d="M918.24 143.2a1.85 1.85 0 1 0 0.98 3.57z" stroke="rgba(192, 122, 53, 1)"></path><path d="M1259.33 240.39 a47.64 47.64 0 1 0 95.28 0 a47.64 47.64 0 1 0 -95.28 0z" fill="rgba(192, 122, 53, 1)"></path><path d="M201.65 399.73L211.61 399.73L211.61 420.02L201.65 420.02z" fill="rgba(192, 122, 53, 1)"></path><path d="M917.04 318.38 a16.4 16.4 0 1 0 32.8 0 a16.4 16.4 0 1 0 -32.8 0z" stroke="rgba(192, 122, 53, 1)"></path><path d="M65.7 9.57L113.57 9.57L113.57 57.44L65.7 57.44z" stroke="rgba(192, 122, 53, 1)"></path><path d="M156.12 109.06L160.38 109.06L160.38 132.25L156.12 132.25z" stroke="rgba(192, 122, 53, 1)"></path><path d="M734.7 380.08L785.94 380.08L785.94 431.32L734.7 431.32z" fill="rgba(192, 122, 53, 1)"></path><path d="M1196 527.55L1222.01 527.55L1222.01 553.56L1196 553.56z" fill="rgba(192, 122, 53, 1)"></path><path d="M1341.08 504.81L1357.63 504.81L1357.63 520.63L1341.08 520.63z" fill="rgba(192, 122, 53, 1)"></path><path d="M519.92 209.93 a36.34 36.34 0 1 0 72.68 0 a36.34 36.34 0 1 0 -72.68 0z" stroke="rgba(192, 122, 53, 1)"></path><path d="M652.95 213.46L665.58 213.46L665.58 238.11L652.95 238.11z" stroke="rgba(192, 122, 53, 1)"></path></g><defs><mask id="SvgjsMask1014"><rect width="1440" height="560" fill="#ffffff"></rect></mask></defs></svg>