<?xml version="1.0" encoding="UTF-8"?>
<svg xmlns="http://www.w3.org/2000/svg" xmlns:xlink="http://www.w3.org/1999/xlink" width="375pt" height="374.999991pt" viewBox="0 0 375 374.999991" version="1.2">
<defs>
<clipPath id="clip1">
  <path d="M 52 11 L 322 11 L 322 351.75 L 52 351.75 Z M 52 11 "/>
</clipPath>
</defs>
<g id="surface1">
<g clip-path="url(#clip1)" clip-rule="nonzero">
<path style=" stroke:none;fill-rule:nonzero;fill:rgb(74.119568%,49.01886%,31.759644%);fill-opacity:1;" d="M 181.050781 83.300781 C 195.058594 65.121094 205.289062 46.824219 220.074219 33.625 C 257.734375 -0.00390625 284.832031 4.847656 311.113281 49.546875 C 321 66.359375 323.507812 92.214844 319.175781 111.679688 C 310.988281 148.320312 298.628906 183.90625 282.34375 217.734375 C 260.515625 262.949219 237.128906 307.941406 202.46875 351.726562 C 188.125 340.953125 172.847656 334.171875 164.550781 322.445312 C 127.800781 270.5 89.335938 219.167969 67.394531 158.597656 C 60.101562 138.472656 56.394531 116.6875 53.75 95.324219 C 51.425781 76.523438 51.832031 55.4375 70.371094 44.34375 C 90.960938 32.019531 112.34375 38.265625 131.652344 50.558594 C 147.511719 60.664062 163.015625 71.3125 181.050781 83.300781 "/>
</g>
</g>
</svg>
